<svg xmlns="http://www.w3.org/2000/svg" viewBox="0 0 128 128" width="128" height="128" fill="none"><rect width="128" height="128" rx="24" fill="#111827"/><path fill="#F59E0B" d="M64 22c-9.5 0-18 3.7-24.6 10.4C32.7 39.1 29 47.6 29 57.1c0 9.2 3.4 17.5 9.8 24.5 5.6 6.1 13 10.2 20.9 11.6V106c0 2.2 1.8 4 4 4s4-1.8 4-4V93.2c7.9-1.4 15.3-5.5 20.9-11.6 6.4-7 9.8-15.3 9.8-24.5 0-9.5-3.7-18-10.4-24.7C82 25.7 73.5 22 64 22Zm0 64c-16.3 0-28-12.4-28-28.9 0-7.5 2.7-14.3 7.7-19.4C48.7 37.6 55.6 35 64 35s15.3 2.6 20.3 7.7c5 5.1 7.7 11.9 7.7 19.4C92 73.6 80.3 86 64 86Z"/></svg>